<mxfile host="app.diagrams.net" modified="2022-02-27T11:19:26.196Z" agent="5.0 (Windows NT 10.0; Win64; x64) AppleWebKit/537.36 (KHTML, like Gecko) Chrome/98.0.4758.102 Safari/537.36" etag="E3WqPFrm-TiMzf8ZcZEv" version="16.6.4" type="github">
  <diagram id="Ow_PxB39bdyT6ah7yO31" name="第 1 页">
    <mxGraphModel dx="1038" dy="1716" grid="1" gridSize="10" guides="1" tooltips="1" connect="1" arrows="1" fold="1" page="1" pageScale="1" pageWidth="827" pageHeight="1169" math="0" shadow="0">
      <root>
        <mxCell id="0" />
        <mxCell id="1" parent="0" />
        <mxCell id="cSj56Bkl-ythe_LLcU9s-19" style="edgeStyle=orthogonalEdgeStyle;rounded=0;orthogonalLoop=1;jettySize=auto;html=1;exitX=0.5;exitY=0;exitDx=0;exitDy=0;entryX=1;entryY=0.5;entryDx=0;entryDy=0;entryPerimeter=0;" edge="1" parent="1" source="cSj56Bkl-ythe_LLcU9s-1" target="cSj56Bkl-ythe_LLcU9s-17">
          <mxGeometry relative="1" as="geometry" />
        </mxCell>
        <mxCell id="cSj56Bkl-ythe_LLcU9s-21" value="查询用户积分" style="edgeLabel;html=1;align=center;verticalAlign=middle;resizable=0;points=[];" vertex="1" connectable="0" parent="cSj56Bkl-ythe_LLcU9s-19">
          <mxGeometry x="0.1133" y="1" relative="1" as="geometry">
            <mxPoint as="offset" />
          </mxGeometry>
        </mxCell>
        <mxCell id="cSj56Bkl-ythe_LLcU9s-29" style="edgeStyle=orthogonalEdgeStyle;rounded=0;orthogonalLoop=1;jettySize=auto;html=1;entryX=0;entryY=0.5;entryDx=0;entryDy=0;entryPerimeter=0;exitX=0.75;exitY=0;exitDx=0;exitDy=0;" edge="1" parent="1" source="cSj56Bkl-ythe_LLcU9s-1" target="cSj56Bkl-ythe_LLcU9s-27">
          <mxGeometry relative="1" as="geometry" />
        </mxCell>
        <mxCell id="cSj56Bkl-ythe_LLcU9s-1" value="抽奖服务" style="rounded=0;whiteSpace=wrap;html=1;fillColor=#dae8fc;strokeColor=#6c8ebf;" vertex="1" parent="1">
          <mxGeometry x="230" y="200" width="120" height="50" as="geometry" />
        </mxCell>
        <mxCell id="cSj56Bkl-ythe_LLcU9s-12" style="edgeStyle=orthogonalEdgeStyle;rounded=0;orthogonalLoop=1;jettySize=auto;html=1;exitX=1;exitY=0.5;exitDx=0;exitDy=0;entryX=0;entryY=0.5;entryDx=0;entryDy=0;entryPerimeter=0;" edge="1" parent="1" source="cSj56Bkl-ythe_LLcU9s-2" target="cSj56Bkl-ythe_LLcU9s-7">
          <mxGeometry relative="1" as="geometry" />
        </mxCell>
        <mxCell id="cSj56Bkl-ythe_LLcU9s-2" value="MQ消息消费服务" style="rounded=1;whiteSpace=wrap;html=1;fillColor=#dae8fc;strokeColor=#6c8ebf;" vertex="1" parent="1">
          <mxGeometry x="540" y="190" width="120" height="60" as="geometry" />
        </mxCell>
        <mxCell id="cSj56Bkl-ythe_LLcU9s-4" value="" style="curved=1;endArrow=classic;html=1;rounded=0;exitX=1;exitY=0.5;exitDx=0;exitDy=0;entryX=0;entryY=0.5;entryDx=0;entryDy=0;" edge="1" parent="1" source="cSj56Bkl-ythe_LLcU9s-1" target="cSj56Bkl-ythe_LLcU9s-2">
          <mxGeometry width="50" height="50" relative="1" as="geometry">
            <mxPoint x="390" y="310" as="sourcePoint" />
            <mxPoint x="440" y="260" as="targetPoint" />
            <Array as="points">
              <mxPoint x="430" y="230" />
              <mxPoint x="420" y="210" />
            </Array>
          </mxGeometry>
        </mxCell>
        <mxCell id="cSj56Bkl-ythe_LLcU9s-5" value="中奖记录和抽奖记录" style="edgeLabel;html=1;align=center;verticalAlign=middle;resizable=0;points=[];" vertex="1" connectable="0" parent="cSj56Bkl-ythe_LLcU9s-4">
          <mxGeometry x="0.0547" y="1" relative="1" as="geometry">
            <mxPoint as="offset" />
          </mxGeometry>
        </mxCell>
        <mxCell id="cSj56Bkl-ythe_LLcU9s-7" value="" style="shape=cylinder3;whiteSpace=wrap;html=1;boundedLbl=1;backgroundOutline=1;size=15;" vertex="1" parent="1">
          <mxGeometry x="710" y="170" width="60" height="80" as="geometry" />
        </mxCell>
        <mxCell id="cSj56Bkl-ythe_LLcU9s-8" value="抽奖记录流水表" style="shape=document;whiteSpace=wrap;html=1;boundedLbl=1;fillColor=#ffe6cc;strokeColor=#d79b00;" vertex="1" parent="1">
          <mxGeometry x="800" y="70" width="70" height="60" as="geometry" />
        </mxCell>
        <mxCell id="cSj56Bkl-ythe_LLcU9s-9" value="用户积分" style="shape=document;whiteSpace=wrap;html=1;boundedLbl=1;fillColor=#ffe6cc;strokeColor=#d79b00;" vertex="1" parent="1">
          <mxGeometry x="800" y="170" width="70" height="60" as="geometry" />
        </mxCell>
        <mxCell id="cSj56Bkl-ythe_LLcU9s-10" value="中奖记录" style="shape=document;whiteSpace=wrap;html=1;boundedLbl=1;fillColor=#ffe6cc;strokeColor=#d79b00;" vertex="1" parent="1">
          <mxGeometry x="800" y="270" width="70" height="60" as="geometry" />
        </mxCell>
        <mxCell id="cSj56Bkl-ythe_LLcU9s-14" value="" style="shape=message;html=1;whiteSpace=wrap;html=1;outlineConnect=0;" vertex="1" parent="1">
          <mxGeometry x="420" y="220" width="40" height="20" as="geometry" />
        </mxCell>
        <mxCell id="cSj56Bkl-ythe_LLcU9s-18" style="edgeStyle=orthogonalEdgeStyle;rounded=0;orthogonalLoop=1;jettySize=auto;html=1;exitX=1;exitY=0.3333333333333333;exitDx=0;exitDy=0;exitPerimeter=0;entryX=0;entryY=0.5;entryDx=0;entryDy=0;" edge="1" parent="1" source="cSj56Bkl-ythe_LLcU9s-16" target="cSj56Bkl-ythe_LLcU9s-1">
          <mxGeometry relative="1" as="geometry" />
        </mxCell>
        <mxCell id="cSj56Bkl-ythe_LLcU9s-16" value="Actor" style="shape=umlActor;verticalLabelPosition=bottom;verticalAlign=top;html=1;outlineConnect=0;" vertex="1" parent="1">
          <mxGeometry x="60" y="190" width="30" height="60" as="geometry" />
        </mxCell>
        <mxCell id="cSj56Bkl-ythe_LLcU9s-17" value="" style="shape=cylinder3;whiteSpace=wrap;html=1;boundedLbl=1;backgroundOutline=1;size=15;" vertex="1" parent="1">
          <mxGeometry x="150" y="80" width="60" height="80" as="geometry" />
        </mxCell>
        <mxCell id="cSj56Bkl-ythe_LLcU9s-34" style="edgeStyle=orthogonalEdgeStyle;rounded=0;orthogonalLoop=1;jettySize=auto;html=1;exitX=1;exitY=0.5;exitDx=0;exitDy=0;exitPerimeter=0;entryX=0.449;entryY=1.031;entryDx=0;entryDy=0;entryPerimeter=0;" edge="1" parent="1" source="cSj56Bkl-ythe_LLcU9s-27" target="cSj56Bkl-ythe_LLcU9s-33">
          <mxGeometry relative="1" as="geometry" />
        </mxCell>
        <mxCell id="cSj56Bkl-ythe_LLcU9s-27" value="redis" style="shape=cylinder3;whiteSpace=wrap;html=1;boundedLbl=1;backgroundOutline=1;size=15;rounded=1;glass=0;" vertex="1" parent="1">
          <mxGeometry x="384" y="100" width="60" height="80" as="geometry" />
        </mxCell>
        <mxCell id="cSj56Bkl-ythe_LLcU9s-30" value="UserInfo" style="swimlane;fontStyle=0;childLayout=stackLayout;horizontal=1;startSize=26;fillColor=none;horizontalStack=0;resizeParent=1;resizeParentMax=0;resizeLast=0;collapsible=1;marginBottom=0;rounded=1;glass=0;" vertex="1" parent="1">
          <mxGeometry x="460" y="-70" width="140" height="104" as="geometry" />
        </mxCell>
        <mxCell id="cSj56Bkl-ythe_LLcU9s-31" value="accid   用户最大流水id" style="text;strokeColor=none;fillColor=none;align=left;verticalAlign=top;spacingLeft=4;spacingRight=4;overflow=hidden;rotatable=0;points=[[0,0.5],[1,0.5]];portConstraint=eastwest;rounded=1;glass=0;" vertex="1" parent="cSj56Bkl-ythe_LLcU9s-30">
          <mxGeometry y="26" width="140" height="26" as="geometry" />
        </mxCell>
        <mxCell id="cSj56Bkl-ythe_LLcU9s-32" value="point    第一次抽奖时的总积分" style="text;strokeColor=none;fillColor=none;align=left;verticalAlign=top;spacingLeft=4;spacingRight=4;overflow=hidden;rotatable=0;points=[[0,0.5],[1,0.5]];portConstraint=eastwest;rounded=1;glass=0;" vertex="1" parent="cSj56Bkl-ythe_LLcU9s-30">
          <mxGeometry y="52" width="140" height="26" as="geometry" />
        </mxCell>
        <mxCell id="cSj56Bkl-ythe_LLcU9s-33" value="count   当天抽奖次数&#xa;" style="text;strokeColor=none;fillColor=none;align=left;verticalAlign=top;spacingLeft=4;spacingRight=4;overflow=hidden;rotatable=0;points=[[0,0.5],[1,0.5]];portConstraint=eastwest;rounded=1;glass=0;" vertex="1" parent="cSj56Bkl-ythe_LLcU9s-30">
          <mxGeometry y="78" width="140" height="26" as="geometry" />
        </mxCell>
        <mxCell id="cSj56Bkl-ythe_LLcU9s-35" value="用户积分" style="shape=document;whiteSpace=wrap;html=1;boundedLbl=1;fillColor=#ffe6cc;strokeColor=#d79b00;" vertex="1" parent="1">
          <mxGeometry x="40" y="40" width="70" height="60" as="geometry" />
        </mxCell>
        <mxCell id="cSj56Bkl-ythe_LLcU9s-36" value="判断积分是否足够，如果足够，继续抽奖，并把积分添加到redis，下次抽奖，直接从redis获取剩余积分。下次抽奖的剩余积分每次抽奖都会计算，剩余积分=point+积分到账流水-count*100." style="text;strokeColor=none;fillColor=none;align=left;verticalAlign=middle;rounded=0;glass=0;spacing=0;spacingTop=-2;html=1;whiteSpace=wrap;" vertex="1" parent="1">
          <mxGeometry x="250" y="-40" width="204" height="110" as="geometry" />
        </mxCell>
        <mxCell id="cSj56Bkl-ythe_LLcU9s-37" value="由于redis的主从同步方式问题，当master宕机，数据还未完全同步到slave , slave会升级为新的master，导致部分数据丢失，可能会导致抽奖次数没有限制住 。消费者会做最后保证，每次发礼券和扣积分时，会检查流水，如果流水有已经够了，就不在扣积分和发礼券了" style="text;strokeColor=none;fillColor=none;align=left;verticalAlign=middle;rounded=0;glass=0;spacing=0;spacingTop=-2;html=1;whiteSpace=wrap;" vertex="1" parent="1">
          <mxGeometry x="640" y="340" width="250" height="110" as="geometry" />
        </mxCell>
        <mxCell id="cSj56Bkl-ythe_LLcU9s-39" style="edgeStyle=orthogonalEdgeStyle;rounded=0;orthogonalLoop=1;jettySize=auto;html=1;entryX=0.5;entryY=0;entryDx=0;entryDy=0;" edge="1" parent="1" source="cSj56Bkl-ythe_LLcU9s-38" target="cSj56Bkl-ythe_LLcU9s-35">
          <mxGeometry relative="1" as="geometry" />
        </mxCell>
        <mxCell id="cSj56Bkl-ythe_LLcU9s-46" style="edgeStyle=orthogonalEdgeStyle;rounded=0;orthogonalLoop=1;jettySize=auto;html=1;exitX=0.5;exitY=1;exitDx=0;exitDy=0;" edge="1" parent="1" source="cSj56Bkl-ythe_LLcU9s-38" target="cSj56Bkl-ythe_LLcU9s-45">
          <mxGeometry relative="1" as="geometry" />
        </mxCell>
        <mxCell id="cSj56Bkl-ythe_LLcU9s-38" value="积分到账" style="rounded=0;whiteSpace=wrap;html=1;glass=0;" vertex="1" parent="1">
          <mxGeometry x="65" y="-100" width="100" height="50" as="geometry" />
        </mxCell>
        <mxCell id="cSj56Bkl-ythe_LLcU9s-40" value="加积分" style="text;html=1;align=center;verticalAlign=middle;resizable=0;points=[];autosize=1;strokeColor=none;fillColor=none;" vertex="1" parent="1">
          <mxGeometry x="75" y="-20" width="50" height="20" as="geometry" />
        </mxCell>
        <mxCell id="cSj56Bkl-ythe_LLcU9s-45" value="积分到账流水" style="shape=document;whiteSpace=wrap;html=1;boundedLbl=1;fillColor=#ffe6cc;strokeColor=#d79b00;" vertex="1" parent="1">
          <mxGeometry x="140" y="10" width="70" height="60" as="geometry" />
        </mxCell>
        <mxCell id="cSj56Bkl-ythe_LLcU9s-47" value="积分到账流水" style="shape=document;whiteSpace=wrap;html=1;boundedLbl=1;fillColor=#ffe6cc;strokeColor=#d79b00;" vertex="1" parent="1">
          <mxGeometry x="800" y="-8" width="70" height="60" as="geometry" />
        </mxCell>
      </root>
    </mxGraphModel>
  </diagram>
</mxfile>
